# xmcd
#
# Track frame offsets: 
#        150
#        20057
#        31022
#        42462
#        57924
#        70253
#        93579
#        105820
#        121043
#        137640
#        155189
#        173708
#        182435
#        196276
#        210373
#        218703
#        240591
#
# Disc length: 3351 seconds
#
# Revision: 1
# Processed by: cddbd v1.5.2PL0 Copyright (c) Steve Scherf et al.
# Submitted via: ExactAudioCopy v0.99pb5
#
DISCID=e00d1511
DTITLE=Various Artist - De Grootste Kampvuurklassiekers - Volume 1 [2
DTITLE=CD2]
DYEAR=1900
DGENRE=Pop
TTITLE0=Ralph McTell - The Streets Of London
TTITLE1=Boudewijn De Groot - Verdronken Vlinder
TTITLE2=Jim Croce - I'll Have To Say I Love You
TTITLE3=Noordkaap - Ik Hou Van U
TTITLE4=The Highway Men - Michael Row The Boat Ashore
TTITLE5=Vuile Mong and Z'n Vieze Gasten - Het Apekot
TTITLE6=Tony Sheridan - My Bonnie Lies Over The Ocean
TTITLE7=Raymond Van Het Groenewoud - Vlaanderen Boven
TTITLE8=Donovan - Mellow Yellow
TTITLE9=De Nieuwe Snaar - De Schat Van De Farao
TTITLE10=Harry Belafonte and Odetta - There's A Hole In The Bucket
TTITLE11=Pete Seeger - Where Have All The Flowers Gone
TTITLE12=The Dubliners - The Wild Rover
TTITLE13=The Kelly Family - Who'll Come With Me
TTITLE14=Julie Andrews and Cast - Edelweiss
TTITLE15=Simon and Garfunkel - Bridge Over Troubled Water
TTITLE16=Nonkel Bob - Vrolijke Vrienden
EXTD=
EXTT0=
EXTT1=
EXTT2=
EXTT3=
EXTT4=
EXTT5=
EXTT6=
EXTT7=
EXTT8=
EXTT9=
EXTT10=
EXTT11=
EXTT12=
EXTT13=
EXTT14=
EXTT15=
EXTT16=
PLAYORDER=
